<svg id="Layer_1" data-name="Layer 1" xmlns="http://www.w3.org/2000/svg" viewBox="0 0 336 336"><defs><style>.cls-1{fill:#fff;}</style></defs><path class="cls-1" d="M268.79,187.93a24.19,24.19,0,0,0-24,21.16H186.16c0-3.13-.08-6.61-.16-10.56q-.09-3.53-.16-7.57c0-6.47.22-11.25.37-15.1.07-1.8.13-3.35.16-4.72h10.89a24.16,24.16,0,1,0,0-6H186.12a13.12,13.12,0,0,0-2.12-5.37c-5.32-8.2-15.45-11.2-23.83-12.2,14.34-4.59,19.63-9.28,22-20.39h62.63a24.16,24.16,0,1,0,0-6H183.16c.64-5.27,1-11.69,1.39-19.66.26-5,.55-10.47,1-16.66H199a24.16,24.16,0,1,0,0-6H185.9l.15-2.89c1.26-24.72,1.46-28.52-1.88-34.84-7.59-14.37-21.36-22.62-37.8-22.65h-.07c-15.8,0-30.15,7.8-36.57,19.87-6.19,11.63-4.38,26,5.08,40.56-5-2-13.91-10.67-15-16.72l-.11-.64-.59.26c-18.08,8-25.73,31-23.25,44l.1.53.51-.14A61.58,61.58,0,0,1,113.63,108a18.94,18.94,0,0,1,10.85-5.51,17.9,17.9,0,0,1,14.59,4c-13.59-3.28-27,5.37-25.78,19.88a24.56,24.56,0,0,0,4.91,12.58,18,18,0,0,1-9.55-11.72,19.35,19.35,0,0,1,.69-12.62c-13.22-3.31-32.86-5.23-52.47,14.55C42.19,146,39,168.19,48.31,188.48c9,19.69,27.48,32.51,47.25,33a23.63,23.63,0,0,1-22.53,3l-.55-.2-.12.57c-.87,4.1-3,18.54,6,32.33a43.53,43.53,0,0,0,25.18,18l.13,0,.13,0a27.27,27.27,0,0,0,16.1-12.42,21.34,21.34,0,0,1-12,19.73l-.27.14V283c-.3,8,2.61,15.25,8.63,21.53,8.29,8.64,20,12.69,25.24,12.71a51.66,51.66,0,0,0,5.58.32c19.94,0,30.75-12.75,35.59-20.81,7.28-12.12,9.78-27.49,7.09-39.3H199a24.16,24.16,0,1,0,0-6H187.71a25,25,0,0,0-2.22-4,16.11,16.11,0,0,0-15-7.45c11.72-7.3,14.87-13.08,15.52-24.86h58.8a24.16,24.16,0,1,0,24-27.16Zm0-81.91a18.16,18.16,0,1,1-18.16,18.16A18.19,18.19,0,0,1,268.79,106ZM223,63.7a18.16,18.16,0,1,1-18.16,18.16A18.19,18.19,0,0,1,223,63.7Zm0,172.55a18.16,18.16,0,1,1-18.16,18.16A18.19,18.19,0,0,1,223,236.25ZM221.23,150a18.16,18.16,0,1,1-18.16,18.16A18.17,18.17,0,0,1,221.23,150Zm47.56,80.27A18.16,18.16,0,1,1,287,212.09,18.18,18.18,0,0,1,268.79,230.25Z"/></svg>