<svg id="full_logo" xmlns="http://www.w3.org/2000/svg" xmlns:xlink="http://www.w3.org/1999/xlink" viewBox="0 0 6958 1080"><defs><style>.cls-1{fill:#eae8ea;}.cls-2{fill:url(#Sfumatura_senza_nome_2);}.cls-3{fill:url(#Sfumatura_senza_nome_4);}</style><radialGradient id="Sfumatura_senza_nome_2" cx="527.67" cy="734.33" r="736.04" gradientUnits="userSpaceOnUse"><stop offset="0.01" stop-color="#edbb00"/><stop offset="1" stop-color="#e86900"/></radialGradient><radialGradient id="Sfumatura_senza_nome_4" cx="518.48" cy="772.42" r="204.36" gradientUnits="userSpaceOnUse"><stop offset="0" stop-color="#edbb00"/><stop offset="0.23" stop-color="#eba000"/><stop offset="0.54" stop-color="#ea8200"/><stop offset="0.81" stop-color="#e87000"/><stop offset="1" stop-color="#e86900"/></radialGradient></defs><g id="Text"><path class="cls-1" d="M2022.4,779.69H1946l-79.64-289.16h-2.61l-79.63,289.16h-73.1l-90.74-334.85h55.49l71.14,288.51h2.62l77-288.51h79l77,288.51h2.61l71.15-288.51h54.18Z"/><path class="cls-1" d="M2456.47,790.14c-93.74,0-170.46-71-176.49-164.6-7-108.61,70.17-191.14,175.79-191.14,97.91,0,165.14,76.37,165.14,177.54,0,6.53-.65,17.63-1.3,22.85H2334.37c9.13,64.62,56.78,108.35,122.71,108.35,45,0,80.28-18.93,106.4-51.57l30.67,31.34C2561.52,766.63,2513.89,790.13,2456.47,790.14ZM2334.37,590.4H2568.7c-3.92-63.31-49-109.66-113.58-109.66S2342.85,525.13,2334.37,590.4Z"/><path class="cls-1" d="M2826.49,779.69V444.84h52.22V779.69Z"/><path class="cls-1" d="M3263.16,444.84v46.34h-.65a97.26,97.26,0,0,0-97.26,97.26V779.69H3113V594.32A149.48,149.48,0,0,1,3262.5,444.84Z"/><path class="cls-1" d="M4321.17,444.84v-5.22a149.47,149.47,0,0,1,149.47-149.48h0v45.7h0a97.26,97.26,0,0,0-97.26,97.26v11.74h93.34v45.69h-93.34V779.69h-52.21V444.84Z"/><path class="cls-1" d="M4804.81,444.84v46.34h-.65a97.27,97.27,0,0,0-97.26,97.26V779.69h-52.22V594.32a149.48,149.48,0,0,1,149.48-149.48Z"/><path class="cls-1" d="M6005.79,779.69h-52.22V558.61c0-42.36-33.88-77.81-76.24-77.87-44.46-.06-75.19,31.94-75.19,77V779.69h-52.23V557.77c0-45.22-31.57-77.28-76.23-77-42.2.24-75.85,35.6-75.85,77.8V779.69h-52.22V557.77c0-72.46,54.83-123.37,127.94-123.37,47,0,82.89,20.88,103.13,55.48,20.89-34.6,56.78-55.48,102.48-55.48,75.07,0,126.63,50.91,126.63,123.37Z"/><path class="cls-1" d="M6387,790.14c-93.75,0-170.47-71-176.5-164.6-7-108.61,70.17-191.14,175.79-191.14,97.92,0,165.15,76.37,165.15,177.54,0,6.53-.66,17.63-1.31,22.85H6264.87c9.14,64.62,56.8,108.35,122.72,108.35,45,0,80.29-18.93,106.4-51.57l30.67,31.34C6492,766.63,6444.41,790.13,6387,790.14ZM6264.87,590.4h234.34c-3.92-63.31-49-109.66-113.58-109.66S6273.36,525.13,6264.87,590.4Z"/><path class="cls-1" d="M3775.54,290.3H3724s.21,188,.5,194c-31.54-31.33-75.53-50.06-125.82-50.06-101.17,0-176.89,75.72-176.89,177.55S3496.18,790,3598.65,790c101.83,0,176.89-76.37,176.89-178.2h0ZM3598.65,743c-71.8,0-123.36-56.14-123.36-131.2,0-75.72,51.56-131.2,123.36-131.2s124,55.48,124,131.2C3722.67,686.84,3670.45,743,3598.65,743Z"/><path class="cls-1" d="M5316.55,779.37h-50.26l.5-39.61c-31.54,31.33-75.53,50-125.83,50-101.17,0-176.89-75.71-176.89-177.54s74.42-178.2,176.89-178.2c101.83,0,176.89,76.37,176.89,178.2h0ZM5141,481.07c-71.79,0-123.36,56.14-123.36,131.2,0,75.72,51.57,131.2,123.36,131.2s124-55.48,124-131.2C5265,537.21,5212.77,481.07,5141,481.07Z"/><path class="cls-1" d="M6840.56,579.3,6885,599.54c43.08,19.58,72.45,45.69,72.45,94.65,0,56.13-44.39,95.95-114.23,95.95H6766.8V744.45h79.63c34.6,0,58.75-17.63,58.75-50.26,0-23.5-16.32-39.17-50.91-54.83l-41.13-18.93c-43.08-19.58-73.1-44.39-73.1-94.65,0-52.22,43.73-91.38,104.44-91.38h73.75v44.39h-72.45c-32.64,0-54.83,19.58-54.83,46.34C6791,549.93,6806.62,563.64,6840.56,579.3Z"/></g><g id="Icon"><path class="cls-2" d="M0,24.86V1055.14A24.86,24.86,0,0,0,24.86,1080h0C43.8,998.92,54.64,963.42,54.64,963.42,106,799.85,114.55,756.55,158.2,687.47c-11.62-6.55-16.86-24-13.15-34.53.8,7.1,10,17.08,19.28,17.24-7.6-12.18-8.85-42.61-4.06-53.2,3.26,9.08,13.84,25.12,23.52,33,2.81-4,5.73-7.93,8.7-11.89-15.21-24.66-23.6-60.63-21.57-91.15,2.93-43.9,27.32-74.63,38.06-86.68a142.74,142.74,0,0,0,12.68,76.11A137.8,137.8,0,0,0,248.13,574c63.21-63.23,144.06-116.77,229.33-137.59,41.44-50.66,120.12-93.71,177.87-76.72-32.79,8-70.16,27.37-79,64.24,6.85-14.48,57.42-32.79,74.53-24.56-11.46,3-23.36,19.87-28.84,35.35,93.47,20,183.17,77.52,251.39,148.92a140.28,140.28,0,0,0,36.22-57.49c11.09-34.07-14.44-103.56-17.69-117.09,12.21,10.57,60.82,77.88,69.37,121,8,40.55-6.64,97.07-32.35,121.51,2.13,3.1,4.24,6.21,6.29,9.33,12.65-4.62,30-19,36.33-28.38,2,11.45-7,40.58-17.41,50.43,8.88,2.25,20.54-5.17,23-11.78.8,9.24-6.57,24.14-17.4,28.31C982.89,720.18,1027.5,933,1052.64,1080h2.5a24.86,24.86,0,0,0,24.86-24.86V24.86A24.86,24.86,0,0,0,1055.14,0H24.86A24.86,24.86,0,0,0,0,24.86Z"/><path class="cls-3" d="M516.43,617.29c-134.67,0-241.79,42.11-241.79,142.53S383.81,927.55,518.48,927.55s243.84-67.31,243.84-167.73S651.1,617.29,516.43,617.29ZM494,833.37c-5.13-12.74-25-77.43-9.37-153.44A114.08,114.08,0,0,1,501.3,641c7.74,11,9.94,22.1,12.8,40.14C528.28,770.59,497.78,827.26,494,833.37Z"/></g></svg>