<svg id="WF_Logo" data-name="WF_Logo 1" xmlns="http://www.w3.org/2000/svg" xmlns:xlink="http://www.w3.org/1999/xlink" viewBox="0 0 1080 1080"><defs><style>.cls-1{fill:url(#Sfumatura_senza_nome_2);}.cls-2{fill:url(#Sfumatura_senza_nome_3);}</style><radialGradient id="Sfumatura_senza_nome_2" cx="527.67" cy="734.33" r="736.04" gradientUnits="userSpaceOnUse"><stop offset="0.01" stop-color="#edbb00"/><stop offset="1" stop-color="#e86900"/></radialGradient><radialGradient id="Sfumatura_senza_nome_3" cx="526.33" cy="751.67" r="752" gradientUnits="userSpaceOnUse"><stop offset="0" stop-color="#edbb00"/><stop offset="0.23" stop-color="#eba000"/><stop offset="0.54" stop-color="#ea8200"/><stop offset="0.81" stop-color="#e87000"/><stop offset="1" stop-color="#e86900"/></radialGradient></defs><g id="Icon"><path class="cls-1" d="M0,24.86V1055.14A24.86,24.86,0,0,0,24.86,1080h0C43.8,998.92,54.64,963.42,54.64,963.42,106,799.85,114.55,756.55,158.2,687.47c-11.62-6.55-16.86-24-13.15-34.53.8,7.1,10,17.08,19.28,17.24-7.6-12.18-8.85-42.61-4.06-53.2,3.26,9.08,13.84,25.12,23.52,33,2.81-4,5.73-7.93,8.7-11.89-15.21-24.66-23.6-60.63-21.57-91.15,2.93-43.9,27.32-74.63,38.06-86.68a142.74,142.74,0,0,0,12.68,76.11A137.8,137.8,0,0,0,248.13,574c63.21-63.23,144.06-116.77,229.33-137.59,41.44-50.66,120.12-93.71,177.87-76.72-32.79,8-70.16,27.37-79,64.24,6.85-14.48,57.42-32.79,74.53-24.56-11.46,3-23.36,19.87-28.84,35.35,93.47,20,183.17,77.52,251.39,148.92a140.28,140.28,0,0,0,36.22-57.49c11.09-34.07-14.44-103.56-17.69-117.09,12.21,10.57,60.82,77.88,69.37,121,8,40.55-6.64,97.07-32.35,121.51,2.13,3.1,4.24,6.21,6.29,9.33,12.65-4.62,30-19,36.33-28.38,2,11.45-7,40.58-17.41,50.43,8.88,2.25,20.54-5.17,23-11.78.8,9.24-6.57,24.14-17.4,28.31C982.89,720.18,1027.5,933,1052.64,1080h2.5a24.86,24.86,0,0,0,24.86-24.86V24.86A24.86,24.86,0,0,0,1055.14,0H24.86A24.86,24.86,0,0,0,0,24.86Z"/><path class="cls-2" d="M516.43,617.29c-134.67,0-241.79,42.11-241.79,142.53S383.81,927.55,518.48,927.55s243.84-67.31,243.84-167.73S651.1,617.29,516.43,617.29ZM494,833.37c-5.13-12.74-25-77.43-9.37-153.44A114.08,114.08,0,0,1,501.3,641c7.74,11,9.94,22.1,12.8,40.14C528.28,770.59,497.78,827.26,494,833.37Z"/></g></svg>